<svg width="80" height="80" viewBox="0 0 80 80" fill="none" xmlns="http://www.w3.org/2000/svg">
<path d="M60.0637 3.79343L45.7858 18.0713C45.3244 18.5328 45.3244 19.281 45.7858 19.7425L60.0679 34.0246C60.5294 34.4861 61.2776 34.4861 61.7391 34.0246L76.017 19.7467C76.4785 19.2852 76.4785 18.537 76.017 18.0755L61.7349 3.79343C61.2734 3.33195 60.5252 3.33195 60.0637 3.79343Z" stroke="#EE5A24" stroke-width="3" stroke-linecap="round" stroke-linejoin="round"/>
<path d="M18.9069 73.9054C18.9069 73.9054 4.13586 65.6337 4.13586 55.5893C4.13586 53.8137 4.75107 52.0929 5.87681 50.7197C7.00255 49.3465 8.56929 48.4058 10.3105 48.0576C12.0516 47.7093 13.8597 47.9751 15.4269 48.8097C16.9942 49.6443 18.224 50.9961 18.9069 52.6351C19.5898 50.9961 20.8196 49.6443 22.3869 48.8097C23.9542 47.9751 25.7622 47.7093 27.5034 48.0576C29.2445 48.4058 30.8113 49.3465 31.937 50.7197C33.0627 52.0929 33.678 53.8137 33.678 55.5893C33.678 65.6337 18.9069 73.9054 18.9069 73.9054Z" stroke="#EE5A24" stroke-width="3" stroke-linecap="round" stroke-linejoin="round"/>
<path d="M58.6175 68.4697C57.8445 69.3734 56.8566 70.0681 55.7448 70.49C54.633 70.9119 53.4329 71.0474 52.255 70.884C51.0771 70.7205 49.9593 70.2634 49.0043 69.5548C48.0494 68.8461 47.288 67.9087 46.7903 66.8287C46.2925 65.7487 46.0744 64.5608 46.1561 63.3745C46.2377 62.1881 46.6164 61.0413 47.2574 60.0397C47.8983 59.038 48.7809 58.2136 49.8239 57.6425C50.8669 57.0713 52.0369 56.7716 53.226 56.771C53.7829 56.7739 54.3377 56.8383 54.8804 56.963V56.963C54.1797 55.843 53.8109 54.5472 53.8169 53.226C53.8169 51.3456 54.5639 49.5422 55.8935 48.2125C57.2232 46.8829 59.0266 46.1359 60.907 46.1359C62.7874 46.1359 64.5908 46.8829 65.9204 48.2125C67.2501 49.5422 67.9971 51.3456 67.9971 53.226C68.003 54.5472 67.6343 55.843 66.9336 56.963V56.963C67.4763 56.8383 68.0311 56.7739 68.5879 56.771C69.7771 56.7716 70.947 57.0713 71.99 57.6425C73.0331 58.2136 73.9156 59.038 74.5566 60.0397C75.1975 61.0413 75.5763 62.1881 75.6579 63.3745C75.7395 64.5608 75.5214 65.7487 75.0237 66.8287C74.526 67.9087 73.7646 68.8461 72.8096 69.5548C71.8547 70.2634 70.7368 70.7205 69.5589 70.884C68.381 71.0474 67.1809 70.9119 66.0691 70.49C64.9573 70.0681 63.9694 69.3734 63.1965 68.4697L65.6337 76.2688H56.1802L58.6175 68.4697Z" stroke="#EE5A24" stroke-width="3" stroke-linecap="round" stroke-linejoin="round"/>
<path d="M18.9069 3.54504C18.9069 3.54504 33.678 12.9985 33.678 20.6795C33.6792 22.1417 33.2631 23.574 32.4784 24.8078C31.6937 26.0417 30.5731 27.026 29.2483 27.645C27.9235 28.2639 26.4496 28.4919 24.9997 28.302C23.5498 28.1121 22.1842 27.5123 21.0635 26.5731L23.6337 34.2688H14.1802L16.7503 26.5731C15.6296 27.5123 14.264 28.1121 12.8142 28.302C11.3643 28.4919 9.89033 28.2639 8.56553 27.645C7.24073 27.026 6.12014 26.0417 5.33546 24.8078C4.55077 23.574 4.13461 22.1417 4.13587 20.6795C4.13587 12.9985 18.9069 3.54504 18.9069 3.54504Z" stroke="#EE5A24" stroke-width="3" stroke-linecap="round" stroke-linejoin="round"/>
</svg>
