
<svg version="1.1" viewBox="100 0 810 570" xmlns="http://www.w3.org/2000/svg" xmlns:xlink="http://www.w3.org/1999/xlink">

  <!-- <rect x="0" y="0" width="700" height="700" fill="#fc1" /> -->

  <g fill="#f8f9fa">
    <path d="m166.32 285.6c1.6797-0.55859 3.9219-1.1211 5.0391-2.8008 4.4805-3.9219 4.4805-10.641 0.55859-15.121-3.9219-3.9219-9.5195-4.4805-14-1.1211-0.55859-0.55859-1.1211-1.6797-1.6797-2.2383-3.9219-4.4805-10.641-4.4805-15.121-0.55859-4.4805 3.9219-4.4805 10.641-0.55859 15.121 0.55859 0.55859 1.1211 1.1211 1.6797 1.6797-3.3594 3.9219-3.3594 10.078 0.55859 14 3.9219 4.4805 10.641 4.4805 15.121 0.55859 1.6797-1.6797 2.2383-3.3594 2.8008-5.0391l3.3594 9.5195c0.55859 0.55859 1.1211 1.1211 2.2383 0.55859l9.5195-8.9609c0.55859-0.55859 0.55859-1.6797-0.55859-2.2383z"/>
    <path d="m204.4 204.96 24.078 11.762c1.6797 0.55859 3.3594 0 3.9219-2.2383l2.8008-26.32c0-1.1211-0.55859-2.2383-1.6797-2.8008l-24.078-11.762c-1.6797-0.55859-3.3594 0-3.9219 2.2383l-2.8008 26.32c0 1.1211 0.5625 2.2383 1.6797 2.8008z"/>
    <path d="m277.2 119.84 17.359 10.078c0.55859 0.55859 1.6797 0 2.2383-0.55859l10.078-17.359c2.8008-4.4805 1.1211-10.641-3.3594-13.441-2.2383-1.1211-5.0391-1.6797-7.2812-1.1211-2.2383 0.55859-4.4805 2.2383-6.1602 4.4805l-1.1211 1.6797-1.6797-1.1211c-2.2383-1.1211-5.0391-1.6797-7.2812-1.1211-2.2383 0.55859-4.4805 2.2383-6.1602 4.4805-2.793 5.043-1.1133 11.203 3.3672 14.004z"/>
    <path d="m568.96 14h-208.88c-17.359 0-31.359 14-31.359 31.359v10.078l-67.199 17.359c-16.801 4.4805-26.879 21.281-22.398 38.078l2.2383 8.3984-64.961 35.848c-15.121 8.3984-20.719 27.441-12.32 42.559l2.8008 4.4805-57.68 54.879c-6.1602 5.6016-9.5195 13.441-9.5195 21.84 0 8.3984 2.8008 16.238 8.3984 22.398l222.88 235.2c5.6016 6.1602 13.441 9.5195 21.84 9.5195h1.1211c7.8398 0 15.68-2.8008 21.281-8.3984l128.24-121.52 21.281-11.762 14-3.9219h30.238c17.359 0 31.359-14 31.359-31.359l0.003906-323.68c0-17.359-14-31.359-31.359-31.359zm-304.08 70 64.398-16.801 0.003906 302.4c0 17.359 14 31.359 31.359 31.359h132.16l-137.2 35.277c-5.0391 1.1211-10.078 0.55859-14.559-2.2383-4.4805-2.8008-7.8398-6.7188-8.9609-11.762l-81.203-314.16c-2.8008-10.637 3.3594-21.277 14-24.078zm-82.879 81.199 62.719-34.719 76.16 294c2.2383 7.8398 7.2812 14.559 14.559 19.039 5.0391 2.8008 10.078 4.4805 15.68 4.4805 2.8008 0 5.0391-0.55859 7.8398-1.1211l120.96-31.359-121.52 67.199c-4.4805 2.8008-10.078 3.3594-15.121 1.6797-5.0391-1.6797-8.9609-5.0391-11.762-9.5195l-157.36-282.8c-5.0391-9.5195-1.6797-21.277 7.8398-26.879zm185.36 364c-3.9219 3.3594-8.9609 5.6016-14 5.6016s-10.078-2.2383-13.441-6.1602l-223.44-235.2c-3.9219-3.9219-5.6016-8.9609-5.6016-14 0-5.0391 2.2383-10.078 6.1602-13.441l55.441-52.641 148.96 268.24c3.9219 7.2812 10.641 12.32 18.48 14.559 2.8008 0.55859 5.6016 1.1211 8.9609 1.1211 5.0391 0 10.641-1.1211 15.121-3.9219l99.121-54.879zm221.2-159.6c0 10.641-8.9609 19.602-19.602 19.602l-208.88-0.003906c-10.641 0-19.602-8.9609-19.602-19.602l0.003907-324.24c0-10.641 8.9609-19.602 19.602-19.602h208.88c10.641 0 19.602 8.9609 19.602 19.602z"/>
    <path d="m468.72 144.48c-2.2383-2.2383-5.6016-2.2383-7.2812 0l-46.48 46.48c-12.32 12.32-12.32 32.48 0 45.359 6.1602 6.1602 14.559 9.5195 22.398 9.5195 6.1602 0 11.762-1.6797 17.359-5.0391l-11.762 26.32c-1.1211 2.2383 0.55859 5.0391 3.3594 5.0391h38.078c2.8008 0 4.4805-2.8008 3.3594-5.0391l-11.762-26.32c5.0391 3.3594 11.199 5.0391 17.359 5.0391 8.3984 0 16.801-3.3594 22.961-10.078 11.762-12.879 11.199-32.48-1.1211-44.801z"/>
    <path d="m379.68 42c-0.55859-0.55859-1.6797-0.55859-2.8008 0l-15.68 15.68c-3.9219 3.9219-3.9219 11.199 0 15.121 2.2383 2.2383 5.0391 3.3594 7.8398 3.3594 2.2383 0 3.9219-0.55859 5.6016-1.6797l-3.9219 8.9609c-0.55859 0.55859 0 1.6797 1.1211 1.6797h12.879c1.1211 0 1.6797-1.1211 1.1211-1.6797l-3.9219-8.9609c1.6797 1.1211 3.9219 1.6797 5.6016 1.6797 2.8008 0 5.6016-1.1211 7.8398-3.3594 3.9219-4.4805 3.9219-11.199-0.55859-15.121z"/>
    <path d="m560 338.8c-2.2383 0-3.9219 0.55859-5.6016 1.6797l3.9219-8.9609c0.55859-0.55859 0-1.6797-1.1211-1.6797h-12.879c-1.1211 0-1.6797 1.1211-1.1211 1.6797l3.9219 8.9609c-1.6797-1.1211-3.9219-1.6797-5.6016-1.6797-2.8008 0-5.6016 1.1211-7.8398 3.3594-3.9219 4.4805-3.9219 11.199 0.55859 15.121l15.68 15.68c0.55859 0.55859 1.6797 0.55859 2.8008 0l15.68-15.68c3.9219-3.9219 3.9219-11.199 0-15.121-2.7969-2.2383-5.5977-3.3594-8.3984-3.3594z"/>
  </g>
</svg>
